<svg xmlns="http://www.w3.org/2000/svg" fill="none" viewBox="-1.125 -1.125 36 36" id="Data-File-Search--Streamline-Ultimate.svg" height="36" width="36"><desc>Data File Search Streamline Icon: https://streamlinehq.com</desc><path stroke="#000000" stroke-linecap="round" stroke-linejoin="round" d="M5.2734375 9.4921875v12.65625H10.546875" stroke-width="2.25"></path><path stroke="#000000" stroke-linecap="round" stroke-linejoin="round" d="m5.2734375 17.9296875 3.78140625 -3.78140625c0.195890625 -0.19598906249999998 0.42848437500000003 -0.3514921875 0.6844921875000001 -0.4575796875 0.2560078125 -0.10608749999999999 0.5304234375 -0.1606921875 0.8075390625000001 -0.1606921875s0.55153125 0.054604687500000006 0.8075390625000001 0.1606921875c0.2560078125 0.10608749999999999 0.4886015625 0.26159062499999997 0.6844921875000001 0.4575796875l0.6285937500000001 0.6285937500000001" stroke-width="2.25"></path><path stroke="#000000" stroke-linecap="round" stroke-linejoin="round" d="M12.65625 28.4765625H3.1640625c-0.559434375 0 -1.0959750000000001 -0.2221875 -1.4915531249999998 -0.617765625C1.27692421875 27.46321875 1.0546875 26.92659375 1.0546875 26.3671875V3.1640625c0 -0.559434375 0.22223671875 -1.0959750000000001 0.617821875 -1.4915531249999998C2.0680875 1.27692421875 2.604628125 1.0546875 3.1640625 1.0546875h14.94703125c0.558984375 0.00011953125000000001 1.0951875 0.22216218750000002 1.490625 0.61734375l4.03875 4.03875c0.39515625000000004 0.3954375 0.617203125 0.9315703125 0.61734375 1.490625V10.546875" stroke-width="2.25"></path><path stroke="#000000" stroke-linecap="round" stroke-linejoin="round" d="M14.765625 22.1484375c0 1.9580625 0.777796875 3.835828125 2.162390625 5.2204218749999995C18.312609375 28.753453125 20.190375 29.53125 22.1484375 29.53125c1.9580625 0 3.835828125 -0.777796875 5.2204218749999995 -2.162390625C28.753453125 25.984265625 29.53125 24.106499999999997 29.53125 22.1484375c0 -1.9580625 -0.777796875 -3.835828125 -2.162390625 -5.2204218749999995 -1.38459375 -1.38459375 -3.262359375 -2.162390625 -5.2204218749999995 -2.162390625 -1.9580625 0 -3.835828125 0.777796875 -5.2204218749999995 2.162390625 -1.38459375 1.38459375 -2.162390625 3.262359375 -2.162390625 5.2204218749999995Z" stroke-width="2.25"></path><path stroke="#000000" stroke-linecap="round" stroke-linejoin="round" d="m32.6953125 32.6953125 -5.326874999999999 -5.326874999999999" stroke-width="2.25"></path></svg>